<svg xmlns="http://www.w3.org/2000/svg" viewBox="0 0 1255.553 1244.116">
  <defs>
    <style>
      .b{fill:#dee2ee}
    </style>
  </defs>
  <g opacity=".2">
    <path class="b" d="M328.3 1231.181L13.063 918.801a43.88 43.88 0 010-62.476l70.918-70.282a44.9 44.9 0 0163.062 0l315.236 312.38a43.924 43.924 0 010 62.476l-70.942 70.282a44.867 44.867 0 01-63.037 0zm780.21-773.106l-315.236-312.38a43.881 43.881 0 010-62.476l70.942-70.283a44.867 44.867 0 0163.037 0l315.235 312.38a43.879 43.879 0 010 62.476l-70.941 70.283a44.867 44.867 0 01-63.037 0zM328.302 12.94L13.061 325.309a43.894 43.894 0 000 62.476l851.143 843.393a44.871 44.871 0 0063.046 0l315.231-312.369a43.881 43.881 0 000-62.476L391.345 12.94a44.864 44.864 0 00-63.043 0z"/>
  </g>
</svg>
